#!OML:ASF F:\VICON\USERDATA\INSTALL\SteveWalk\SteveWalk.ASF
:FULLY-SPECIFIED
:DEGREES


370
root 0.461465 16.2933 32.3437 16.4693 4.70837 -0.862742
lowerback -15.2233 -0.536044 2.75315
upperback -5.13313 -1.2105 2.61517
thorax 3.09221 -0.592738 0.975068
lowerneck -4.99856 -0.312281 -0.0273467
upperneck 12.1899 0.0556669 -3.87537
head 4.4696 -0.191974 -1.18305
rclavicle 2.5755e-014 -2.38542e-014
rhumerus -41.9139 -34.2951 -62.858
rradius 16.8572
rwrist 18.4249
rhand -15.1449 -33.5613
rfingers 7.12502
rthumb 11.025 -63.2518
lclavicle 2.5755e-014 -2.38542e-014
lhumerus -32.8462 1.87118 89.1202
lradius 31.395
lwrist 8.48339
lhand -23.0048 -17.0602
lfingers 7.12502
lthumb 3.43848 12.8918
rfemur -32.9219 -1.82287 25.7498
rtibia 35.5305
rfoot -18.7544 5.43557
rtoes 1.713
lfemur -33.9756 1.54703 -19.3225
ltibia 75.4388
lfoot 3.9531 -1.1322
ltoes -7.42642
371
root 0.436686 16.2974 32.5371 16.309 4.29758 -0.732872
lowerback -15.2487 -0.455891 2.1913
upperback -5.02397 -1.02714 2.58839
thorax 3.23172 -0.499012 1.29551
lowerneck -4.86032 -0.267962 -0.0618083
upperneck 12.2898 0.10966 -3.78342
head 4.47796 -0.16153 -1.14636
rclavicle -1.58469e-014 7.15625e-015
rhumerus -38.6802 -29.8128 -67.6562
rradius 18.0016
rwrist 13.0199
rhand -15.6664 -34.53
rfingers 7.12502
rthumb 10.522 -64.2466
lclavicle -1.58469e-014 7.15625e-015
lhumerus -33.3247 3.00335 88.6736
lradius 29.4697
lwrist 7.26189
lhand -23.1805 -17.9997
lfingers 7.12502
lthumb 3.2688 11.955
rfemur -31.8834 -0.977656 25.4973
rtibia 35.1962
rfoot -19.3677 4.87312
rtoes 0.734255
lfemur -35.2331 2.0846 -19.5535
ltibia 75.417
lfoot 2.27797 -0.60399
ltoes -8.42858
372
root 0.42628 16.3035 32.7233 16.2208 3.96032 -0.0784879
lowerback -15.1285 -0.500323 1.33687
upperback -5.03955 -0.946264 2.34774
thorax 3.16122 -0.458236 1.54042
lowerneck -4.44121 -0.177036 -0.00268069
upperneck 11.9639 0.186513 -3.55926
head 4.78452 -0.0909545 -1.20428
rclavicle -1.3331e-014 1.19271e-014
rhumerus -36.6862 -26.7846 -70.6784
rradius 19.0459
rwrist 10.1943
rhand -15.4778 -34.7074
rfingers 7.12502
rthumb 10.7039 -64.4147
lclavicle -1.3331e-014 1.19271e-014
lhumerus -33.8818 4.22372 87.9942
lradius 27.4876
lwrist 5.96491
lhand -23.4328 -18.248
lfingers 7.12502
lthumb 3.02512 11.7103
rfemur -30.8924 -0.695956 24.7393
rtibia 34.9031
rfoot -19.8881 4.56543
rtoes -0.803901
lfemur -36.3901 2.24586 -20.4415
ltibia 75.0616
lfoot 0.807196 0.0772595
ltoes -8.17111
373
root 0.431702 16.3139 32.9138 16.1761 3.9761 0.666482
lowerback -15.0744 -0.691075 0.649522
upperback -5.13705 -1.08242 2.0649
thorax 3.03965 -0.524895 1.6091
lowerneck -4.04876 -0.114654 0.139698
upperneck 12.1345 0.25219 -3.4992
head 4.76876 -0.0474047 -1.2051
rclavicle -5.96354e-015 -1.35174e-014
rhumerus -35.1373 -24.4002 -72.9397
rradius 19.8301
rwrist 8.51517
rhand -15.6146 -33.9834
rfingers 7.12502
rthumb 10.5719 -63.6975
lclavicle -5.96354e-015 -1.35174e-014
lhumerus -34.7106 5.79497 87.0522
lradius 25.7083
lwrist 4.39628
lhand -23.4798 -17.8664
lfingers 7.12502
lthumb 2.97975 12.0926
rfemur -29.9197 -1.29595 24.0224
rtibia 34.7387
rfoot -20.5508 4.81999
rtoes -0.444082
lfemur -37.4827 1.95149 -21.4005
ltibia 74.4708
lfoot -0.593688 0.727
ltoes -6.20333
374
root 0.436516 16.3173 33.1032 16.1215 4.1965 0.720813
lowerback -15.0159 -0.640523 0.7286
upperback -5.11561 -1.0218 1.96468
thorax 3.02632 -0.495479 1.47006
lowerneck -4.5259 -0.212301 0.0790444
upperneck 12.9695 0.157098 -3.5191
head 4.63005 -0.121482 -1.08819
rclavicle 2.22639e-014 -2.54444e-014
rhumerus -33.5258 -22.095 -74.9468
rradius 20.8092
rwrist 6.25053
rhand -15.8797 -33.8374
rfingers 7.12502
rthumb 10.3162 -63.5643
lclavicle 2.22639e-014 -2.54444e-014
lhumerus -35.1934 7.13507 86.2973
lradius 23.9112
lwrist 2.52621
lhand -23.2558 -17.2079
lfingers 7.12502
lthumb 3.19611 12.7479
rfemur -29.016 -1.94545 24.1067
rtibia 34.6104
rfoot -21.2242 5.15387
rtoes 0.148298
lfemur -38.7118 1.74124 -21.5401
ltibia 73.8229
lfoot -1.94033 1.04866
ltoes -4.21941
375
root 0.426626 16.3111 33.2868 16.1528 4.09043 0.561288
lowerback -15.0607 -0.585039 0.705483
upperback -5.11052 -0.946916 1.97953
thorax 3.05464 -0.458122 1.51139
lowerneck -4.62562 -0.174804 0.158019
upperneck 13.1118 0.202132 -3.48995
head 4.69128 -0.0963917 -1.09072
rclavicle 9.25591e-015 -1.82882e-014
rhumerus -32.1533 -19.8421 -76.7671
rradius 22.1218
rwrist 4.36779
rhand -15.5142 -34.2221
rfingers 7.12502
rthumb 10.6688 -63.9312
lclavicle 9.25591e-015 -1.82882e-014
lhumerus -35.6453 8.79904 85.2731
lradius 21.8553
lwrist 0.904196
lhand -23.2035 -17.229
lfingers 7.12502
lthumb 3.24662 12.726
rfemur -28.2995 -1.82262 24.3399
rtibia 34.4678
rfoot -21.6464 5.08539
rtoes 0.126053
lfemur -40.0921 1.96715 -21.4865
ltibia 73.0803
lfoot -3.14408 1.28405
ltoes -3.59076
376
root 0.41722 16.3035 33.4758 16.2545 3.89163 0.32676
lowerback -15.2853 -0.558258 0.688742
upperback -5.06496 -0.918312 2.0636
thorax 3.22368 -0.443612 1.6127
lowerneck -4.57451 -0.121094 0.198324
upperneck 13.0685 0.266973 -3.47244
head 4.67055 -0.0606693 -1.08818
rclavicle -6.92019e-015 -3.18055e-015
rhumerus -30.7165 -17.7296 -78.3514
rradius 23.387
rwrist 2.96184
rhand -15.3187 -34.3581
rfingers 7.12502
rthumb 10.8574 -64.0575
lclavicle -6.92019e-015 -3.18055e-015
lhumerus -36.2469 11.1387 83.8563
lradius 19.9196
lwrist -1.22432
lhand -23.142 -17.6629
lfingers 7.12502
lthumb 3.30598 12.2912
rfemur -27.6148 -1.62961 24.6331
rtibia 34.3151
rfoot -22.0374 5.23291
rtoes 1.313
lfemur -41.462 2.29488 -21.3847
ltibia 72.1615
lfoot -4.26053 1.61996
ltoes -3.38463
377
root 0.423533 16.2909 33.6704 16.3095 3.93276 0.141288
lowerback -15.2032 -0.512186 0.995413
upperback -5.2495 -0.89372 2.00566
thorax 2.97926 -0.432619 1.38379
lowerneck -4.48577 -0.175734 0.253343
upperneck 13.3453 0.187227 -3.41095
head 4.73874 -0.0957697 -1.08369
rclavicle -3.37934e-015 1.66979e-014
rhumerus -29.7931 -15.7656 -79.635
rradius 24.5996
rwrist 1.83113
rhand -15.3656 -34.5281
rfingers 7.12502
rthumb 10.8121 -64.2298
lclavicle -3.37934e-015 1.66979e-014
lhumerus -37.5036 13.6403 81.8762
lradius 18.4771
lwrist -4.66057
lhand -22.6278 -17.0669
lfingers 7.12502
lthumb 3.80251 12.8789
rfemur -26.8136 -2.18656 24.9339
rtibia 34.1861
rfoot -22.7859 5.54551
rtoes 0.0212809
lfemur -42.6037 2.32674 -21.3623
ltibia 71.0155
lfoot -5.17812 2.0631
ltoes -3.85203
378
root 0.432383 16.2743 33.8546 16.34 3.85961 0.27105
lowerback -15.109 -0.516355 0.943874
upperback -5.3335 -0.883621 1.90002
thorax 2.83951 -0.428192 1.30473
lowerneck -4.45381 -0.195456 0.182204
upperneck 13.5266 0.147813 -3.22702
head 4.78833 -0.109351 -1.01807
rclavicle -7.41715e-015 -1.59028e-015
rhumerus -28.7793 -13.5429 -80.8746
rradius 25.8141
rwrist 0.532984
rhand -15.5775 -34.5634
rfingers 7.12502
rthumb 10.6078 -64.2757
lclavicle -7.41715e-015 -1.59028e-015
lhumerus -38.7489 16.1527 79.7722
lradius 17.2848
lwrist -8.2245
lhand -22.0478 -16.2439
lfingers 7.12502
lthumb 4.36259 13.6911
rfemur -26.0605 -2.97249 24.8896
rtibia 34.0895
rfoot -23.7599 5.52462
rtoes -4.62782
lfemur -43.5985 2.29685 -21.7297
ltibia 69.6044
lfoot -5.85686 2.64601
ltoes -4.03889
